<svg width="60" height="45" viewBox="0 0 60 45" fill="none" xmlns="http://www.w3.org/2000/svg">
<path d="M59.9995 35.5109V9.47215C59.9995 8.9179 59.847 8.38013 59.5755 7.90029C58.7166 6.39133 56.8062 5.87104 55.3145 6.73986C47.8942 11.073 40.4685 15.4001 33.0483 19.7332C32.5734 20.0019 32.1612 20.3963 31.867 20.9052C31.0022 22.4201 31.5111 24.352 33.0088 25.2268L55.1165 38.1403C55.6136 38.4833 56.2183 38.6835 56.8684 38.6835C58.5976 38.6835 59.999 37.266 59.999 35.5109H59.9995Z" fill="url(#paint0_linear_24_1285)"/>
<path d="M59.9996 35.5108V9.47215C59.9996 8.9179 59.8471 8.38013 59.5756 7.90029C58.7167 6.39133 56.8063 5.87104 55.3146 6.73986C55.3146 6.73986 48.4033 16.6294 54.97 38.0549L55.1171 38.1408C55.6142 38.4838 56.2189 38.684 56.869 38.684C58.5982 38.684 59.9996 37.2665 59.9996 35.5113V35.5108Z" fill="#A8FFFE"/>
<path d="M54.5178 7.20273C47.3631 11.3816 40.203 15.5544 33.0483 19.7332C32.5734 20.0019 32.1612 20.3963 31.867 20.9052C31.0022 22.4201 31.5111 24.352 33.0088 25.2268L45.357 32.441C42.8365 16.0293 51.7544 8.96934 54.5178 7.20273Z" fill="#300C50"/>
<path d="M41.7288 14.6686C38.8351 16.3548 35.9419 18.047 33.0483 19.7332C32.5734 20.0019 32.1612 20.3963 31.867 20.9052C31.0022 22.4201 31.5111 24.352 33.0088 25.2268L54.9699 38.0544C53.4382 37.1456 40.1916 28.8339 41.7288 14.6686Z" fill="#300C50"/>
<path d="M44.4868 31.9322L33.0089 25.2268C32.0088 24.6436 31.449 23.586 31.449 22.5V31.8119H13.0371C13.0371 31.8119 13.4271 45 39.4004 45C42.1978 45 44.4868 42.6846 44.4868 39.8609V31.9322Z" fill="url(#paint1_linear_24_1285)"/>
<path d="M44.4865 31.9322L33.0086 25.2268C32.0085 24.6436 31.4487 23.586 31.4487 22.5V31.8119C31.4487 31.8119 41.7794 29.6508 44.4865 39.8604V31.9317V31.9322Z" fill="#ECF955"/>
<path d="M22.2433 31.8119H13.0371C13.0371 31.8119 13.4271 45 39.4004 45C23.0287 45 22.2433 31.8119 22.2433 31.8119Z" fill="#8F0359"/>
<path d="M33.0482 19.7332C36.8571 17.5098 40.6718 15.2803 44.4866 13.0563V5.13903C44.4866 2.31536 42.1977 -5.72205e-06 39.4002 -5.72205e-06H5.08008C33.3024 -5.72205e-06 31.4488 13.1881 31.4488 13.1881V22.5005C31.4488 21.9572 31.5846 21.4085 31.867 20.9056C32.1607 20.3968 32.5733 20.0024 33.0482 19.7337V19.7332Z" fill="url(#paint2_linear_24_1285)"/>
<path d="M33.0481 19.7332C36.8569 17.5097 40.6717 15.2803 44.4865 13.0563V5.60189C44.3902 7.31108 43.2263 13.1876 31.4492 13.1876V22.5C31.4492 21.9567 31.585 21.408 31.8673 20.9051C32.161 20.3963 32.5737 20.0019 33.0486 19.7332H33.0481Z" fill="#1F32B4"/>
<path d="M22.2431 -5.72205e-06H5.08008C33.3024 -5.72205e-06 31.4488 13.1881 31.4488 13.1881C31.4488 13.1881 32.9125 3.28154 22.2426 -5.72205e-06H22.2431Z" fill="#ECF955"/>
<path d="M13.0373 31.8119V13.1876C13.0373 13.1876 0 12.3532 0 39.8605C0 42.6841 2.28304 44.9995 5.08045 44.9995H39.4006C13.4273 44.9995 13.0373 31.8114 13.0373 31.8114V31.8119Z" fill="url(#paint3_linear_24_1285)"/>
<path d="M22.2434 45H39.4005C13.4271 45 13.0372 31.8119 13.0372 31.8119C13.0372 31.8119 11.6752 42.1359 22.2434 45Z" fill="#ECF955"/>
<path d="M13.0373 22.5V13.1876C13.0373 13.1876 0 12.3532 0 39.8605C0 23.0942 13.0373 22.4995 13.0373 22.4995V22.5Z" fill="#043305"/>
<path d="M0 39.861C0 12.3532 13.0373 13.1881 13.0373 13.1881H31.4492C31.4492 13.1881 33.3028 0 5.08045 0C2.28304 0 0 2.31536 0 5.13903V39.861Z" fill="url(#paint4_linear_24_1285)"/>
<path d="M0 39.8609C0 17.0863 8.93472 13.7369 12.0091 13.262C8.93472 13.3933 0 13.1017 0 5.13902V39.8609Z" fill="#FFBCFE"/>
<path d="M22.2431 13.1881H31.4493C31.4493 13.1881 33.3029 -5.72205e-06 5.08057 -5.72205e-06C23.029 3.33847 22.2436 13.1881 22.2436 13.1881H22.2431Z" fill="#330066"/>
<defs>
<linearGradient id="paint0_linear_24_1285" x1="37.4697" y1="35.8902" x2="63.8118" y2="14.4677" gradientUnits="userSpaceOnUse">
<stop stop-color="#C835F8"/>
<stop offset="0.49" stop-color="#0049E7"/>
<stop offset="1" stop-color="#5EFAF7"/>
</linearGradient>
<linearGradient id="paint1_linear_24_1285" x1="7.10738" y1="41.5972" x2="48.2949" y2="30.6909" gradientUnits="userSpaceOnUse">
<stop stop-color="#FF057E"/>
<stop offset="1" stop-color="#FFCC00"/>
</linearGradient>
<linearGradient id="paint2_linear_24_1285" x1="50.0975" y1="19.627" x2="18.6638" y2="1.68627" gradientUnits="userSpaceOnUse">
<stop stop-color="#0077C0"/>
<stop offset="0.45" stop-color="#27CBC0"/>
<stop offset="1" stop-color="#C3FF42"/>
</linearGradient>
<linearGradient id="paint3_linear_24_1285" x1="-0.410957" y1="8.15855" x2="24.3669" y2="50.5848" gradientUnits="userSpaceOnUse">
<stop stop-color="#005C01"/>
<stop offset="1" stop-color="#B0F122"/>
</linearGradient>
<linearGradient id="paint4_linear_24_1285" x1="42.3335" y1="-3.62099" x2="-6.99179" y2="24.5296" gradientUnits="userSpaceOnUse">
<stop stop-color="#46008C"/>
<stop offset="0.53" stop-color="#9D15F8"/>
<stop offset="1" stop-color="#FF4CF9"/>
</linearGradient>
</defs>
</svg>
