<svg width="200" height="200" viewBox="0 0 200 200" fill="none" xmlns="http://www.w3.org/2000/svg">
<path d="M109.147 92.3226C109.373 91.4403 110.627 91.4403 110.853 92.3226L111.078 93.1984C112.141 97.3375 115.52 100.477 119.726 101.232C120.582 101.386 120.582 102.614 119.726 102.768C115.52 103.523 112.141 106.663 111.078 110.802L110.853 111.677C110.627 112.56 109.373 112.56 109.147 111.677L108.922 110.802C107.859 106.663 104.48 103.523 100.274 102.768C99.4181 102.614 99.4181 101.386 100.274 101.232C104.48 100.477 107.859 97.3375 108.922 93.1984L109.147 92.3226Z" fill="url(#paint0_linear_68_6988)"/>
<path d="M79.9075 77.6156C80.0505 76.9846 80.9495 76.9846 81.0925 77.6156L81.2428 78.2791C81.9024 81.1913 84.2325 83.4311 87.1685 83.9752C87.7504 84.0831 87.7504 84.9169 87.1685 85.0248C84.2325 85.5689 81.9024 87.8087 81.2428 90.7209L81.0925 91.3844C80.9495 92.0154 80.0505 92.0154 79.9075 91.3844L79.7572 90.7209C79.0976 87.8087 76.7675 85.5689 73.8315 85.0248C73.2496 84.9169 73.2496 84.0831 73.8315 83.9752C76.7675 83.4311 79.0976 81.1913 79.7572 78.2791L79.9075 77.6156Z" fill="url(#paint1_linear_68_6988)"/>
<defs>
<linearGradient id="paint0_linear_68_6988" x1="110" y1="88.5806" x2="110" y2="115.419" gradientUnits="userSpaceOnUse">
<stop stop-color="#CDFF3D"/>
<stop offset="0.22" stop-color="white"/>
<stop offset="1" stop-color="#FF9900"/>
</linearGradient>
<linearGradient id="paint1_linear_68_6988" x1="80.5" y1="75" x2="80.5" y2="94" gradientUnits="userSpaceOnUse">
<stop stop-color="#CDFF3D"/>
<stop offset="0.22" stop-color="white"/>
<stop offset="1" stop-color="#FF9900"/>
</linearGradient>
</defs>
</svg>
