<svg width="200" height="200" viewBox="0 0 200 200" fill="none" xmlns="http://www.w3.org/2000/svg">
<path opacity="0.5" d="M80.1757 78.7016C80.2567 78.3596 80.7433 78.3597 80.8243 78.7016L81.2373 80.4436C81.6667 82.2549 83.1314 83.6378 84.9644 83.9624L86.1466 84.1718C86.5135 84.2368 86.5135 84.7632 86.1466 84.8282L84.9644 85.0376C83.1314 85.3622 81.6667 86.7451 81.2373 88.5563L80.8243 90.2984C80.7433 90.6403 80.2567 90.6403 80.1757 90.2984L79.7627 88.5564C79.3333 86.7451 77.8686 85.3622 76.0356 85.0376L74.8534 84.8282C74.4865 84.7632 74.4865 84.2368 74.8534 84.1718L76.0356 83.9624C77.8686 83.6378 79.3333 82.2549 79.7627 80.4436L80.1757 78.7016Z" fill="url(#paint0_linear_68_6994)"/>
<path d="M100.652 60.9902C100.7 60.5774 101.3 60.5774 101.348 60.9902L101.406 61.4949C101.586 63.04 102.764 64.2811 104.297 64.5414L104.967 64.6549C105.355 64.7209 105.355 65.2791 104.967 65.3451L104.297 65.4586C102.764 65.7189 101.586 66.96 101.406 68.5051L101.348 69.0098C101.3 69.4226 100.7 69.4226 100.652 69.0098L100.594 68.5051C100.414 66.96 99.2362 65.7189 97.7027 65.4586L97.0334 65.3451C96.6448 65.2791 96.6448 64.7209 97.0334 64.6549L97.7027 64.5414C99.2362 64.2811 100.414 63.04 100.594 61.4949L100.652 60.9902Z" fill="url(#paint1_linear_68_6994)"/>
<defs>
<linearGradient id="paint0_linear_68_6994" x1="80.5" y1="77.3333" x2="80.5" y2="91.6667" gradientUnits="userSpaceOnUse">
<stop stop-color="#CDFF3D"/>
<stop offset="0.22" stop-color="white"/>
<stop offset="1" stop-color="#FF9900"/>
</linearGradient>
<linearGradient id="paint1_linear_68_6994" x1="101" y1="59" x2="101" y2="71" gradientUnits="userSpaceOnUse">
<stop stop-color="#CDFF3D"/>
<stop offset="0.22" stop-color="#3D16EC"/>
<stop offset="1" stop-color="#FF9900"/>
</linearGradient>
</defs>
</svg>
