<svg width="200" height="200" viewBox="0 0 200 200" fill="none" xmlns="http://www.w3.org/2000/svg">
<path d="M109.031 89.827C109.285 88.821 110.715 88.821 110.969 89.827L111.323 91.2234C112.605 96.2827 116.721 100.128 121.856 101.063C122.898 101.253 122.898 102.747 121.856 102.937C116.721 103.872 112.605 107.717 111.323 112.777L110.969 114.173C110.715 115.179 109.285 115.179 109.031 114.173L108.677 112.777C107.395 107.717 103.279 103.872 98.1441 102.937C97.1022 102.747 97.1022 101.253 98.1441 101.063C103.279 100.128 107.395 96.2827 108.677 91.2234L109.031 89.827Z" fill="url(#paint0_linear_68_7006)"/>
<path opacity="0.5" d="M80.1757 78.7016C80.2567 78.3597 80.7433 78.3597 80.8243 78.7016L81.2373 80.4437C81.6667 82.255 83.1314 83.6378 84.9644 83.9624L86.1466 84.1718C86.5135 84.2368 86.5135 84.7633 86.1466 84.8283L84.9644 85.0376C83.1314 85.3622 81.6667 86.7451 81.2373 88.5564L80.8243 90.2985C80.7433 90.6404 80.2567 90.6404 80.1757 90.2985L79.7627 88.5564C79.3333 86.7451 77.8686 85.3622 76.0356 85.0376L74.8534 84.8283C74.4865 84.7633 74.4865 84.2368 74.8534 84.1718L76.0356 83.9624C77.8686 83.6378 79.3333 82.255 79.7627 80.4437L80.1757 78.7016Z" fill="url(#paint1_linear_68_7006)"/>
<defs>
<linearGradient id="paint0_linear_68_7006" x1="110" y1="85.4839" x2="110" y2="118.516" gradientUnits="userSpaceOnUse">
<stop stop-color="#CDFF3D"/>
<stop offset="0.22" stop-color="white"/>
<stop offset="1" stop-color="#FF9900"/>
</linearGradient>
<linearGradient id="paint1_linear_68_7006" x1="80.5" y1="77.3334" x2="80.5" y2="91.6667" gradientUnits="userSpaceOnUse">
<stop stop-color="#CDFF3D"/>
<stop offset="0.22" stop-color="white"/>
<stop offset="1" stop-color="#FF9900"/>
</linearGradient>
</defs>
</svg>
